<svg xmlns="http://www.w3.org/2000/svg" viewBox="0 0 48 48"><title>troley</title><g id="troley-2" data-name="troley">
    <path d="M15,39a3,3,0,1,0,3-3A3,3,0,0,0,15,39Zm4,0a1,1,0,1,1-1-1A1,1,0,0,1,19,39Z" fill="white"/><path d="M31,39a3,3,0,1,0,3-3A3,3,0,0,0,31,39Zm4,0a1,1,0,1,1-1-1A1,1,0,0,1,35,39Z" fill="white"/><path d="M7,10A1,1,0,0,0,8,9,1,1,0,0,1,9,8h2.26l5.4,17.27,1.38,5A1,1,0,0,0,19,31H32a1,1,0,0,1,0,2H20a1,1,0,0,0,0,2H32a3,3,0,0,0,0-6H19.76l-.83-3H32.47a6.92,6.92,0,0,0,3.58-1,7,7,0,0,0,3-3.46,6.45,6.45,0,0,0,.21-.62L42,11.27a1,1,0,0,0-.16-.87A1,1,0,0,0,41,10H14L13,6.7A1,1,0,0,0,12,6H9A3,3,0,0,0,6,9,1,1,0,0,0,7,10Zm32.67,2L38,18l-.68,2.37A5,5,0,0,1,32.47,24H18.36l-1.87-6-1.88-6Z" fill="white"/></g></svg>